<svg width="24" height="22" viewBox="0 0 24 22" fill="none" xmlns="http://www.w3.org/2000/svg">
<path d="M15.128 10.8912C14.9604 10.8912 14.8048 10.8451 14.6666 10.771V10.773C14.6666 11.0367 14.5641 11.2843 14.3781 11.4698C14.1921 11.6558 13.9447 11.7583 13.6813 11.7583C13.5112 11.7583 13.3536 11.711 13.2139 11.6349C13.1998 11.8762 13.1034 12.1016 12.9313 12.2739C12.7454 12.4598 12.4979 12.5623 12.2343 12.5623C11.7107 12.5623 11.2855 12.1507 11.2548 11.6348C11.0928 11.7223 10.9096 11.7683 10.7207 11.7561C10.2056 11.7223 9.80216 11.2773 9.80216 10.7426V6.311L9.29753 7.18524C9.10533 7.51961 8.74555 7.72722 8.35818 7.72722C8.16943 7.72722 7.98297 7.6777 7.81783 7.58307C7.61219 7.46385 7.46509 7.27247 7.40391 7.04352C7.34242 6.81442 7.37423 6.57483 7.49313 6.3695C7.49329 6.3695 9.1442 3.5106 9.24491 3.33499C9.25688 3.30859 9.291 3.23201 9.32002 3.16674C9.34774 3.10442 9.37152 3.04046 9.39431 2.97618C9.89218 1.57062 11.1249 0.697514 12.6117 0.697514C14.5424 0.697514 16.1131 2.40073 16.1131 4.49429L16.1132 9.90578C16.1132 10.1692 16.0109 10.4166 15.8251 10.6028C15.6391 10.7887 15.3917 10.8912 15.128 10.8912L15.128 10.8912ZM12.6117 1.22106C11.3342 1.22106 10.316 1.94265 9.88778 3.15127C9.8604 3.22801 9.83186 3.30476 9.79857 3.37954C9.70198 3.59618 9.70198 3.59618 9.67476 3.62733L9.67115 3.62422C9.53635 3.87857 9.13588 4.57209 7.94644 6.63152C7.89757 6.71598 7.88462 6.81405 7.90954 6.90785C7.9348 7.00165 7.99531 7.0807 8.07911 7.12907C8.33921 7.27847 8.69541 7.18204 8.84365 6.92375L9.83728 5.20345C9.89665 5.10096 10.0167 5.05061 10.1318 5.08177C10.2463 5.11244 10.3258 5.21625 10.3258 5.33465V10.7428C10.3258 10.998 10.5183 11.2182 10.755 11.2338C10.8914 11.241 11.0187 11.1952 11.1143 11.0998C11.2012 11.0129 11.2491 10.8971 11.2491 10.7733V7.23628C11.2491 7.09164 11.3664 6.97438 11.511 6.97438C11.6556 6.97438 11.7729 7.09148 11.7729 7.23628L11.7727 11.5772C11.7727 11.8317 11.9799 12.0389 12.2344 12.0389C12.358 12.0389 12.4741 11.991 12.5612 11.9041C12.6481 11.817 12.696 11.7009 12.696 11.5772V7.23628C12.696 7.09164 12.8131 6.97438 12.9579 6.97438C13.1025 6.97438 13.2198 7.09147 13.2198 7.23628L13.2196 10.7326V10.7733C13.2196 11.0276 13.4268 11.2347 13.6814 11.2347C13.8049 11.2347 13.9207 11.1867 14.0083 11.0994C14.0952 11.0127 14.1431 10.8969 14.1431 10.7731V7.23609C14.1431 7.09145 14.2602 6.9742 14.405 6.9742C14.5496 6.9742 14.6669 7.09129 14.6669 7.23609L14.6665 9.9059C14.6665 10.1606 14.8737 10.3677 15.128 10.3677C15.2518 10.3677 15.3676 10.3197 15.4545 10.2329C15.5418 10.1457 15.5895 10.0296 15.5895 9.9059L15.5896 4.49441C15.5896 2.68969 14.2538 1.22111 12.6117 1.22111L12.6117 1.22106Z" fill="#4CAF4F"/>
<path d="M4.83834 14.6523L8.63869 12.3725C9.09688 12.0973 9.68643 12.2142 9.98031 12.6388C10.0876 12.7934 10.1423 12.9737 10.1509 13.1572C10.2925 13.0832 10.4467 13.0431 10.6036 13.0431C10.684 13.0431 10.7647 13.0531 10.8444 13.0729C11.0997 13.1367 11.3149 13.2963 11.4502 13.5219C11.5856 13.7479 11.6252 14.0127 11.5614 14.2678C11.5025 14.5037 11.359 14.7024 11.1594 14.8386C11.299 14.921 11.4193 15.0333 11.505 15.1763C11.6404 15.4023 11.6799 15.667 11.6163 15.9223C11.5525 16.1773 11.3929 16.3925 11.167 16.5281L11.1657 16.5289C11.3028 16.6111 11.421 16.7223 11.5056 16.8631C11.6412 17.0891 11.6808 17.354 11.617 17.6093C11.553 17.8645 11.3934 18.0796 11.1678 18.2151L6.52752 20.9989C5.66147 21.5182 4.66028 21.6975 3.7088 21.5032C2.7488 21.307 1.95374 20.7552 1.47032 19.9493C0.705278 18.6743 0.819931 17.1679 1.76895 16.0181C1.81241 15.9656 1.85521 15.9122 1.89408 15.8567C1.93524 15.7982 1.98329 15.7293 1.99969 15.7057C2.09792 15.5302 3.7008 12.6423 3.70063 12.6426C3.86249 12.3506 4.16588 12.1852 4.47877 12.1854C4.62472 12.1854 4.77281 12.2213 4.90942 12.2971C5.0744 12.3892 5.21297 12.5236 5.30989 12.6854C5.50914 13.0175 5.5162 13.4331 5.32859 13.7694L4.83834 14.6523ZM4.86114 12.9546C4.8103 12.8699 4.74044 12.8023 4.655 12.7544C4.47838 12.6567 4.25601 12.7203 4.15877 12.8963C3.01182 14.9626 2.62084 15.6667 2.46996 15.9173L2.4734 15.9182C2.46077 15.9601 2.46077 15.9601 2.32269 16.1574C2.27579 16.2242 2.22479 16.2883 2.17281 16.3514C1.35676 17.3401 1.262 18.5844 1.91911 19.68C2.32614 20.3586 2.99884 20.8238 3.81338 20.9901C4.63678 21.1575 5.50463 21.0017 6.25787 20.5498L10.8986 17.7659C11.0045 17.7024 11.0793 17.6016 11.1091 17.482C11.139 17.3626 11.1205 17.2385 11.0568 17.1325C10.926 16.9144 10.6418 16.8428 10.4236 16.9741L8.13432 18.3476C8.01035 18.422 7.8493 18.382 7.77501 18.2579C7.70056 18.1339 7.74074 17.973 7.86472 17.8986L10.1542 16.5251L10.8978 16.0791C11.0037 16.0154 11.0786 15.9146 11.1085 15.7954C11.1383 15.6758 11.1198 15.5515 11.0562 15.4457C10.9251 15.2274 10.6409 15.1564 10.423 15.2873L7.38996 17.1068C7.26565 17.1814 7.1051 17.1411 7.03065 17.0171C6.9562 16.8931 6.99654 16.7323 7.12035 16.6578L10.8428 14.4247C10.9488 14.3611 11.0235 14.2604 11.0534 14.1409C11.0832 14.0215 11.0647 13.8973 11.0012 13.7914C10.9378 13.6856 10.8369 13.6108 10.7174 13.581C10.5972 13.5511 10.4735 13.5697 10.3679 13.633L9.67881 14.0464C9.67864 14.0464 9.67864 14.0466 9.67848 14.0466H9.67831L6.64544 15.8661C6.52114 15.9409 6.36042 15.9005 6.28614 15.7764C6.21169 15.6524 6.25203 15.4915 6.37584 15.4171L9.40888 13.5976C9.51481 13.5339 9.58976 13.4331 9.61961 13.3139C9.6524 13.183 9.62748 13.0492 9.54974 12.937C9.41494 12.742 9.12665 12.6902 8.90805 12.8215L4.27071 15.6035C4.16919 15.6642 4.03915 15.6494 3.95404 15.5673C3.86876 15.485 3.84957 15.3556 3.90697 15.2521L4.87126 13.5147C4.96801 13.3411 4.96424 13.1266 4.86109 12.9547L4.86114 12.9546Z" fill="#4CAF4F"/>
<path d="M22.998 19.9492C22.5147 20.7552 21.7199 21.3069 20.7597 21.503C19.8081 21.697 18.8072 21.5181 17.941 20.9987L13.3003 18.2148C13.0745 18.0793 12.9148 17.8642 12.8508 17.6087C12.7873 17.3537 12.827 17.0888 12.9623 16.8631C13.0468 16.7221 13.1652 16.6109 13.3024 16.5288L13.3011 16.528C13.0753 16.3925 12.9156 16.1773 12.852 15.9221C12.788 15.667 12.8277 15.4019 12.9631 15.176C13.0504 15.0309 13.1699 14.9174 13.3064 14.8369C13.1083 14.7006 12.9656 14.5027 12.9069 14.2678C12.8429 14.0125 12.8826 13.7476 13.0181 13.5219C13.1534 13.2961 13.3687 13.1366 13.6239 13.0728C13.7036 13.0528 13.7844 13.0429 13.8645 13.0429C14.0216 13.0431 14.1757 13.0829 14.3174 13.1571C14.3261 12.9736 14.3807 12.7933 14.488 12.6387C14.782 12.2144 15.371 12.097 15.8299 12.3724L19.6301 14.6519L19.1403 13.7696C18.9523 13.4327 18.9592 13.0172 19.1585 12.6849C19.2556 12.5232 19.3943 12.3889 19.5601 12.2959C19.6964 12.2205 19.844 12.1847 19.9896 12.1847C20.3023 12.1849 20.606 12.3499 20.7677 12.642C21.3312 13.6573 22.3945 15.572 22.4693 15.7057C22.4852 15.7288 22.5332 15.7977 22.5744 15.8562C22.6136 15.9118 22.6559 15.965 22.6997 16.0178C23.6486 17.168 23.763 18.6743 22.998 19.9492L22.998 19.9492ZM22.2957 16.3515C22.2435 16.2884 22.1924 16.2239 22.1458 16.1575C22.0041 15.9565 22.0005 15.9512 21.9898 15.8986C21.8242 15.6245 21.4201 14.8971 20.3094 12.896C20.212 12.7204 19.9906 12.6563 19.8143 12.7537C19.7276 12.8022 19.6579 12.8699 19.607 12.9547C19.504 13.1264 19.5001 13.3409 19.5974 13.5151L20.5613 15.2519C20.6189 15.3556 20.5997 15.4848 20.5146 15.5671C20.4296 15.6496 20.2997 15.664 20.1977 15.6034L15.5604 12.8214C15.3418 12.6904 15.0537 12.7417 14.9185 12.9368C14.8408 13.049 14.816 13.1828 14.8485 13.3135C14.8784 13.4329 14.9533 13.5336 15.0594 13.5972C15.0597 13.5974 15.0599 13.5977 15.0602 13.5979L18.0923 15.4169C18.2163 15.4913 18.2564 15.6521 18.182 15.7762C18.1075 15.9 17.947 15.9405 17.8227 15.8659L14.1002 13.6328C13.9946 13.5695 13.8703 13.5508 13.7509 13.5808C13.6312 13.6107 13.5305 13.6855 13.467 13.7916C13.4034 13.8974 13.385 14.0215 13.4146 14.1409C13.4444 14.2603 13.5194 14.3611 13.6253 14.4248L14.3497 14.8592L17.3476 16.6579C17.4716 16.7323 17.5118 16.893 17.4373 17.0172C17.3628 17.141 17.2023 17.1813 17.078 17.1069L14.0453 15.2874C13.8272 15.1562 13.5431 15.2273 13.4119 15.4458C13.3483 15.5517 13.33 15.6759 13.3595 15.7953C13.3893 15.9146 13.4643 16.0153 13.5704 16.0791L14.3139 16.5252L16.6031 17.8986C16.727 17.9731 16.7672 18.1338 16.6928 18.2579C16.6183 18.3817 16.4578 18.4224 16.3335 18.3476L14.0443 16.9742C13.9387 16.9109 13.8149 16.8922 13.6948 16.9222C13.5754 16.9521 13.4744 17.0268 13.411 17.1326C13.3475 17.2385 13.329 17.3629 13.3585 17.4821C13.3883 17.6015 13.4633 17.7022 13.5694 17.7659L18.2101 20.5499C18.9632 21.0017 19.8316 21.1581 20.6546 20.9902C21.4689 20.8239 22.1417 20.3586 22.5487 19.68C23.2064 18.5842 23.1118 17.3399 22.296 16.3515L22.2957 16.3515Z" fill="#4CAF4F"/>
</svg>
