<svg width="46" height="40" viewBox="0 0 46 40" fill="none" xmlns="http://www.w3.org/2000/svg">
<path d="M45.7925 26.8835C45.7925 33.8032 40.1829 39.4127 33.2632 39.4127L14.4694 39.4127C12.5472 39.4127 10.989 37.8545 10.989 35.9324L10.989 12.266C10.989 8.42172 14.1054 5.30531 17.9497 5.30531L42.3121 5.30532C44.2343 5.30532 45.7925 6.86352 45.7925 8.78566L45.7925 26.8835Z" fill="#E8F5E9"/>
<path d="M19.2836 13.6657C19.0665 13.6657 18.8899 13.4895 18.8899 13.272V12.6029C18.8899 12.3857 19.0662 12.2091 19.2836 12.2091C19.5008 12.2091 19.6774 12.3854 19.6774 12.6029V13.272C19.6774 13.4895 19.5008 13.6657 19.2836 13.6657Z" fill="#103E13"/>
<path d="M17.6281 13.6657C17.4109 13.6657 17.2344 13.4895 17.2344 13.272V12.6029C17.2344 12.3857 17.4107 12.2091 17.6281 12.2091C17.8453 12.2091 18.0219 12.3854 18.0219 12.6029V13.272C18.0216 13.4895 17.8456 13.6657 17.6281 13.6657Z" fill="#103E13"/>
<path d="M15.9729 13.6657C15.7557 13.6657 15.5791 13.4895 15.5791 13.272V12.6029C15.5791 12.3857 15.7554 12.2091 15.9729 12.2091C16.19 12.2091 16.3666 12.3854 16.3666 12.6029V13.272C16.3666 13.4895 16.1903 13.6657 15.9729 13.6657Z" fill="#103E13"/>
<path d="M19.2836 16.4021C19.0665 16.4021 18.8899 16.2258 18.8899 16.0084V15.3395C18.8899 15.1223 19.0662 14.9457 19.2836 14.9457C19.5008 14.9457 19.6774 15.122 19.6774 15.3395V16.0084C19.6774 16.2258 19.5008 16.4021 19.2836 16.4021Z" fill="#103E13"/>
<path d="M17.6281 16.4021C17.4109 16.4021 17.2344 16.2258 17.2344 16.0084V15.3395C17.2344 15.1223 17.4107 14.9457 17.6281 14.9457C17.8453 14.9457 18.0219 15.122 18.0219 15.3395V16.0084C18.0216 16.2258 17.8456 16.4021 17.6281 16.4021Z" fill="#103E13"/>
<path d="M15.9729 16.4021C15.7557 16.4021 15.5791 16.2258 15.5791 16.0084V15.3395C15.5791 15.1223 15.7554 14.9457 15.9729 14.9457C16.19 14.9457 16.3666 15.122 16.3666 15.3395V16.0084C16.3666 16.2258 16.1903 16.4021 15.9729 16.4021Z" fill="#103E13"/>
<path d="M19.2836 19.1386C19.0665 19.1386 18.8899 18.9623 18.8899 18.7448V18.0757C18.8899 17.8585 19.0662 17.6819 19.2836 17.6819C19.5008 17.6819 19.6774 17.8582 19.6774 18.0757V18.7448C19.6774 18.9623 19.5008 19.1386 19.2836 19.1386Z" fill="#103E13"/>
<path d="M17.6281 19.1386C17.4109 19.1386 17.2344 18.9623 17.2344 18.7448V18.0757C17.2344 17.8585 17.4107 17.6819 17.6281 17.6819C17.8453 17.6819 18.0219 17.8582 18.0219 18.0757V18.7448C18.0216 18.9623 17.8456 19.1386 17.6281 19.1386Z" fill="#103E13"/>
<path d="M15.9729 19.1386C15.7557 19.1386 15.5791 18.9623 15.5791 18.7448V18.0757C15.5791 17.8585 15.7554 17.6819 15.9729 17.6819C16.19 17.6819 16.3666 17.8582 16.3666 18.0757V18.7448C16.3666 18.9623 16.1903 19.1386 15.9729 19.1386Z" fill="#103E13"/>
<path d="M19.2836 21.8744C19.0665 21.8744 18.8899 21.6981 18.8899 21.4807V20.8115C18.8899 20.5943 19.0662 20.4178 19.2836 20.4178C19.5008 20.4178 19.6774 20.5941 19.6774 20.8115V21.4807C19.6774 21.6981 19.5008 21.8744 19.2836 21.8744Z" fill="#103E13"/>
<path d="M17.6281 21.8744C17.4109 21.8744 17.2344 21.6981 17.2344 21.4807V20.8115C17.2344 20.5943 17.4107 20.4178 17.6281 20.4178C17.8453 20.4178 18.0219 20.5941 18.0219 20.8115V21.4807C18.0216 21.6981 17.8456 21.8744 17.6281 21.8744Z" fill="#103E13"/>
<path d="M15.9729 21.8744C15.7557 21.8744 15.5791 21.6981 15.5791 21.4807V20.8115C15.5791 20.5943 15.7554 20.4178 15.9729 20.4178C16.19 20.4178 16.3666 20.5941 16.3666 20.8115V21.4807C16.3666 21.6981 16.1903 21.8744 15.9729 21.8744Z" fill="#103E13"/>
<path d="M19.2836 24.6108C19.0665 24.6108 18.8899 24.4345 18.8899 24.217V23.5482C18.8899 23.331 19.0662 23.1544 19.2836 23.1544C19.5008 23.1544 19.6774 23.3307 19.6774 23.5482V24.217C19.6774 24.4342 19.5008 24.6108 19.2836 24.6108Z" fill="#103E13"/>
<path d="M17.6281 24.6108C17.4109 24.6108 17.2344 24.4345 17.2344 24.217V23.5482C17.2344 23.331 17.4107 23.1544 17.6281 23.1544C17.8453 23.1544 18.0219 23.3307 18.0219 23.5482V24.217C18.0216 24.4342 17.8456 24.6108 17.6281 24.6108Z" fill="#103E13"/>
<path d="M15.9729 24.6108C15.7557 24.6108 15.5791 24.4345 15.5791 24.217L15.5794 23.5482C15.5794 23.331 15.7557 23.1544 15.9731 23.1544C16.1903 23.1544 16.3669 23.3307 16.3669 23.5482V24.217C16.3666 24.4342 16.1903 24.6108 15.9729 24.6108Z" fill="#103E13"/>
<path d="M4.7247 27.334C4.7247 27.5512 4.90097 27.7277 5.11844 27.7277H29.0965C29.3137 27.7277 29.4902 27.5514 29.4902 27.334C29.4902 27.1168 29.3139 26.9402 29.0965 26.9402H28.3686V15.6352C28.3686 15.418 28.1923 15.2414 27.9749 15.2414L21.5462 15.2417V7.09132C21.5462 6.95348 21.4742 6.82608 21.3567 6.75468C21.2394 6.68302 21.0928 6.67863 20.9709 6.74205L13.6619 10.5475C13.5315 10.6153 13.4502 10.7498 13.4502 10.8967V18.0159H6.37675C6.15956 18.0159 5.983 18.1922 5.983 18.4097V26.9403H5.11757C4.90038 26.94 4.72437 27.1163 4.72437 27.3338L4.7247 27.334ZM21.5463 21.2051H27.5815V26.9406L21.5463 26.9403V21.2051ZM21.5463 18.469H27.5815V20.4179L21.5463 20.4177V18.469ZM21.5463 16.0288H27.5815V17.682H21.5463V16.0288ZM14.2373 11.1358L20.7585 7.74035V26.9399H14.2373V11.1358ZM8.71693 23.7954C8.71693 22.9783 9.36439 22.3132 10.1604 22.3132C10.9564 22.3132 11.6041 22.978 11.6041 23.7954V26.9404H8.71693V23.7954ZM6.77048 18.8033H13.4501V26.9403H12.3916V23.7953C12.3916 22.544 11.3911 21.5259 10.1604 21.5259C8.93027 21.5259 7.92973 22.5437 7.92973 23.7953V26.9403H6.77048V18.8033Z" fill="#103E13"/>
</svg>
