<svg width="34" height="34" viewBox="0 0 34 34" fill="none" xmlns="http://www.w3.org/2000/svg">
<path d="M7.09082 5.71729H26.9287C28.0824 5.71729 29.189 6.176 30.0049 6.9917C30.8207 7.80751 31.2792 8.91415 31.2793 10.0679V23.6411C31.2793 24.7949 30.8207 25.9014 30.0049 26.7173C29.189 27.5332 28.0825 27.9917 26.9287 27.9917H7.09082C5.9371 27.9916 4.83046 27.5331 4.01465 26.7173C3.19896 25.9014 2.74023 24.7948 2.74023 23.6411V10.0679C2.74029 8.91415 3.19884 7.80751 4.01465 6.9917C4.83046 6.17589 5.9371 5.71735 7.09082 5.71729ZM4.13281 23.6411C4.13281 24.4256 4.44441 25.1781 4.99902 25.7329C5.55376 26.2876 6.30631 26.6 7.09082 26.6001H26.9287C27.7133 26.6001 28.4657 26.2877 29.0205 25.7329C29.5753 25.1781 29.8877 24.4257 29.8877 23.6411V13.3745H4.13281V23.6411ZM22.2305 20.3354H25.3633C25.5477 20.3356 25.725 20.4081 25.8555 20.5386C25.9859 20.669 26.0585 20.8463 26.0586 21.0308C26.0586 21.2152 25.9857 21.3925 25.8555 21.5229C25.725 21.6534 25.5477 21.7269 25.3633 21.7271H22.2305C22.0459 21.727 21.8688 21.6535 21.7383 21.5229C21.6079 21.3924 21.5342 21.2153 21.5342 21.0308C21.5343 20.8463 21.6078 20.669 21.7383 20.5386C21.8688 20.4082 22.046 20.3355 22.2305 20.3354ZM7.09082 7.10986C6.30631 7.10992 5.55376 7.42134 4.99902 7.97607C4.44429 8.53081 4.13287 9.28336 4.13281 10.0679V11.9819H29.8877V10.0679C29.8876 9.28336 29.5752 8.53081 29.0205 7.97607C28.4657 7.42146 27.7132 7.10986 26.9287 7.10986H7.09082Z" fill="#4CAF4F" stroke="#4CAF4F" stroke-width="0.696069"/>
</svg>
