<svg width="33" height="21" viewBox="0 0 33 21" fill="none" xmlns="http://www.w3.org/2000/svg">
<g clip-path="url(#clip0_301_1473)">
<path d="M30.6172 3.25476C30.6172 3.27829 30.6172 3.30771 30.6111 3.32537C30.5804 3.55485 30.5804 3.78433 30.5988 4.0197C30.6111 4.07854 30.6233 4.13739 30.6724 4.18446C30.7521 4.27272 30.8747 4.25507 30.9237 4.14915C30.9483 4.0962 30.9483 4.04324 30.936 3.99028C30.8747 3.76668 30.8624 3.53132 30.8563 3.30183C30.8563 3.29006 30.8563 3.27241 30.8563 3.25476C30.9237 3.24887 30.985 3.24299 31.0402 3.24299C31.0831 3.2371 31.1199 3.23122 31.1506 3.21356C31.2425 3.16649 31.2425 3.06646 31.1444 3.01939C31.1076 3.00174 31.0586 2.99585 31.0157 2.99585C30.8624 3.00174 30.7092 3.00174 30.5559 3.00174C30.5007 3.00174 30.4455 3.00762 30.3903 3.0135C30.3597 3.01939 30.3229 3.01939 30.2984 3.03704C30.2554 3.05469 30.231 3.08411 30.231 3.1253C30.2371 3.16649 30.2554 3.19003 30.2984 3.20768C30.3229 3.22534 30.3535 3.23122 30.3842 3.23122C30.4578 3.2371 30.5375 3.24887 30.6172 3.25476ZM32.3031 3.52543C32.3031 3.53132 32.3093 3.5372 32.3093 3.5372C32.3338 3.69607 32.3583 3.84906 32.3767 4.00205C32.3829 4.055 32.389 4.10208 32.4258 4.14327C32.5055 4.2433 32.6281 4.23153 32.6832 4.12562C32.7078 4.07266 32.7139 4.0197 32.7017 3.96086C32.6649 3.78433 32.6465 3.60781 32.6097 3.43717C32.5851 3.33125 32.5545 3.23122 32.5239 3.13707C32.5055 3.07823 32.4626 3.03704 32.389 3.03116C32.3154 3.01939 32.2602 3.05469 32.2296 3.10765C32.1928 3.15472 32.1621 3.2018 32.1376 3.25476C32.0947 3.3489 32.0579 3.44305 32.0089 3.53132C32.0027 3.55485 31.9966 3.5725 31.9844 3.59015C31.9782 3.57839 31.9721 3.5725 31.9721 3.5725C31.8924 3.4254 31.8188 3.27829 31.7391 3.13707C31.7268 3.1253 31.7207 3.11353 31.7146 3.10177C31.6778 3.04881 31.6349 3.01939 31.5675 3.01939C31.5061 3.02527 31.4571 3.06058 31.4265 3.11353C31.4142 3.13707 31.4142 3.15472 31.4081 3.17826C31.3835 3.36656 31.3529 3.55485 31.3284 3.74314C31.3161 3.84906 31.31 3.95497 31.31 4.06089C31.3038 4.08443 31.31 4.11385 31.3222 4.13739C31.3345 4.18446 31.3713 4.21388 31.4203 4.21976C31.4816 4.22565 31.5245 4.208 31.5429 4.16092C31.5613 4.12562 31.5675 4.0962 31.5736 4.06678C31.5981 3.96086 31.6165 3.86083 31.6349 3.7608C31.6472 3.70196 31.6533 3.65488 31.6717 3.59015C31.6839 3.61369 31.6962 3.63135 31.7085 3.649C31.7636 3.71961 31.8188 3.79022 31.8863 3.84906C31.9537 3.89613 32.0089 3.89025 32.064 3.83729C32.0763 3.82552 32.0825 3.81964 32.0947 3.80787C32.1499 3.72549 32.2173 3.64311 32.2725 3.56073C32.2848 3.54896 32.2909 3.5372 32.3031 3.52543Z" fill="#3A3B7B"/>
<path d="M18.177 3.37042C18.1344 3.48225 18.1262 3.56281 18.1459 3.62978C18.1676 3.72083 18.224 3.75064 18.3006 3.72749C19.0207 3.55658 20.5998 4.04169 21.1844 4.17689C21.3223 4.20528 21.4344 4.03445 21.3404 3.8813C21.2031 3.73298 19.6247 3.09796 19.0224 3.06333C18.7864 3.05053 18.3643 2.99243 18.177 3.37042Z" fill="#3A3B7B"/>
<path d="M24.3483 1.31455C24.425 1.35706 24.4679 1.39762 24.4891 1.44293C24.5207 1.50237 24.504 1.54349 24.451 1.56448C23.975 1.78745 23.3416 2.74739 23.0859 3.07846C23.0239 3.15463 22.881 3.11037 22.8594 2.98512C22.8638 2.84351 23.4253 1.80176 23.7387 1.51802C23.8618 1.40724 24.0653 1.18988 24.3483 1.31455Z" fill="#3A3B7B"/>
<path d="M20.5577 0.84216C20.6499 0.775465 20.7458 0.752093 20.7947 0.795436C21.5129 1.38494 21.8937 2.31846 22.1296 3.17308C22.1384 3.19299 22.139 3.22157 22.1319 3.25137C22.129 3.27685 22.1096 3.30376 22.0788 3.32458C22.0459 3.34757 22.0175 3.35457 22.0042 3.33476C21.6894 2.92385 19.8917 1.32508 20.5577 0.84216Z" fill="#3A3B7B"/>
<path d="M5.3491 11.0625C5.52123 10.9395 5.70836 10.8371 5.90638 10.7577C6.11356 10.7008 6.33439 10.7102 6.5355 10.7846C6.73655 10.8589 6.907 10.994 7.02094 11.1695C7.12287 11.3446 7.16274 11.5467 7.13461 11.7455C7.10647 11.9442 7.01183 12.1287 6.86489 12.2714C6.751 12.387 6.62168 12.4877 6.48039 12.5709C5.85067 12.9614 5.21534 13.3304 4.58004 13.7209C4.45005 13.8186 4.31214 13.9062 4.16765 13.9829C3.94786 14.0881 3.69668 14.1163 3.45754 14.0626C3.2184 14.0089 3.00634 13.8767 2.85803 13.6888C2.74716 13.5557 2.65359 13.4103 2.57938 13.2555C1.97752 12.0414 1.35336 10.8326 0.773781 9.59699C0.506282 9.06215 0.288942 8.44703 0.0771737 7.85333C-0.0144471 7.68083 -0.0323386 7.48085 0.0273089 7.29587C0.0869565 7.1109 0.219437 6.95555 0.39657 6.86288C0.573704 6.77021 0.781511 6.74755 0.975802 6.79966C1.17009 6.85178 1.33554 6.97459 1.43695 7.14195C1.74865 7.53953 2.02458 7.96183 2.26173 8.40427C2.8636 9.47399 3.43761 10.5437 4.01718 11.5814C4.05093 11.6387 4.08814 11.694 4.12864 11.7472C4.56487 11.5711 4.97516 11.341 5.3491 11.0625Z" fill="#3A3B7B"/>
<path d="M11.5721 10.6893C10.1956 12.2351 7.88846 11.8446 6.72932 9.85492C5.90452 8.44286 5.75964 6.11083 7.55411 4.63994C7.9373 4.332 8.3955 4.12223 8.886 4.03019C9.4874 3.94744 10.1007 4.04927 10.6381 4.32113C11.1756 4.59299 11.6098 5.02095 11.8787 5.54388C12.8595 7.25547 12.7201 9.43771 11.5721 10.6893ZM11.0148 7.0843C10.8686 6.6637 10.5752 6.30461 10.1845 6.06802C9.96336 5.91677 9.69467 5.84323 9.4237 5.85979C9.15268 5.87635 8.89591 5.982 8.69653 6.15895C7.89963 6.83826 7.73241 8.44823 8.31199 9.40564C8.38588 9.56176 8.49435 9.7005 8.62993 9.81216C8.76551 9.92383 8.92488 10.0057 9.09687 10.0521C9.26886 10.0984 9.44931 10.1082 9.62564 10.0806C9.80198 10.053 9.96986 9.98874 10.1176 9.89236C10.5496 9.57089 10.8665 9.12827 11.0243 8.626C11.1821 8.12369 11.173 7.5867 10.9981 7.08967L11.0148 7.0843Z" fill="#3A3B7B"/>
<path d="M17.1895 7.75841C17.0485 7.78749 16.903 7.78924 16.7613 7.7635C16.6197 7.73776 16.4848 7.68514 16.3647 7.60866C16.2596 7.55095 16.1691 7.47163 16.0998 7.37634C16.0304 7.28105 15.984 7.17223 15.9638 7.05763C15.9435 6.94308 15.95 6.82563 15.9826 6.71374C16.0153 6.60184 16.0735 6.4983 16.1529 6.41053C16.2913 6.23418 16.4877 6.10793 16.7102 6.05218C17.2913 5.89033 17.8895 5.79165 18.4935 5.75802C18.6263 5.7432 18.7607 5.75398 18.889 5.78972C19.0173 5.82551 19.1369 5.88547 19.2407 5.96621C19.3445 6.04691 19.4305 6.14674 19.4936 6.25978C19.5567 6.37282 19.5956 6.49683 19.6081 6.6245C19.7822 7.25165 19.8013 7.90921 19.6638 8.5447C19.1623 10.5986 17.4347 11.3046 15.4953 10.6467C14.9509 10.4708 14.4736 10.1431 14.1244 9.70535C13.6586 9.17822 13.3284 8.55351 13.1603 7.88145C13.0241 7.28298 13.039 6.66199 13.2038 6.07021C13.3686 5.47844 13.6785 4.93308 14.1077 4.47967C14.5149 3.98687 15.0435 3.59904 15.6458 3.35109C16.0264 3.14976 16.4717 3.09252 16.8941 3.19063C16.9899 3.21609 17.0769 3.26568 17.146 3.33427C17.2152 3.40287 17.2639 3.48796 17.2872 3.58072C17.3105 3.67349 17.3076 3.77055 17.2786 3.86185C17.2496 3.95314 17.1958 4.03534 17.1226 4.09991C16.9834 4.22082 16.8322 4.32831 16.6712 4.42083C16.1757 4.72366 15.7446 5.11387 15.4006 5.57079C15.1751 5.86647 15.0198 6.20601 14.9457 6.56546C14.8715 6.92491 14.8803 7.2956 14.9715 7.65147C15.0979 8.13667 15.3783 8.57218 15.774 8.89768C17 9.96745 18.5938 8.93511 18.3152 7.47493C17.9084 7.57123 17.5517 7.67285 17.1895 7.75841Z" fill="#3A3B7B"/>
<path d="M24.6794 10.775C22.8683 11.8448 20.8063 10.775 20.3549 8.52861C20.0261 6.92401 20.6503 4.67754 22.8349 3.82175C23.2996 3.64359 23.8038 3.58103 24.3005 3.63989C24.8973 3.74475 25.4447 4.02672 25.8656 4.44607C26.2865 4.86542 26.5598 5.40097 26.6467 5.97728C27.0145 7.88674 26.1785 9.92461 24.6794 10.775ZM25.3092 7.17537C25.3086 6.73105 25.1449 6.30108 24.8467 5.96123C24.6872 5.75102 24.4568 5.6004 24.1946 5.53502C23.9324 5.4697 23.6547 5.49364 23.4088 5.60288C22.428 6.00935 21.737 7.48559 21.9878 8.57141C22.0069 8.7418 22.0646 8.90613 22.1568 9.0529C22.249 9.19966 22.3735 9.32532 22.5216 9.42111C22.6697 9.51685 22.8378 9.58044 23.0141 9.60737C23.1905 9.63425 23.3709 9.62389 23.5426 9.57695C24.061 9.40312 24.5099 9.07827 24.8266 8.64771C25.1433 8.21715 25.3121 7.70241 25.3092 7.17537Z" fill="#3A3B7B"/>
<path d="M28.4783 11.2242C28.451 11.42 28.3438 11.5973 28.1802 11.7172C28.0166 11.837 27.8101 11.8896 27.6062 11.8634C27.4022 11.8371 27.2175 11.7342 27.0926 11.5772C26.9677 11.4202 26.9129 11.222 26.9402 11.0263C26.9676 10.8305 27.0748 10.6532 27.2384 10.5333C27.4019 10.4135 27.6084 10.3609 27.8124 10.3871C28.0163 10.4134 28.2011 10.5163 28.326 10.6733C28.4509 10.8303 28.5057 11.0284 28.4783 11.2242ZM27.9935 4.00879C28.0995 3.85342 28.255 3.73511 28.4368 3.67149C28.6185 3.60787 28.8169 3.60236 29.0022 3.65577C29.1906 3.70101 29.357 3.807 29.4737 3.95597C29.5904 4.10495 29.6501 4.28788 29.6431 4.47412C29.6185 4.77286 29.5719 5.06957 29.5038 5.362C29.3198 6.35153 29.1415 7.34101 28.9465 8.31985C28.8573 8.71031 28.7403 9.08471 28.6121 9.48049C28.5675 9.60423 28.493 9.71603 28.3948 9.80677C28.3337 9.87504 28.2557 9.92739 28.1679 9.959C28.0801 9.99065 27.9855 10.0005 27.8927 9.98771C27.7999 9.97492 27.712 9.93987 27.6371 9.88582C27.5621 9.83173 27.5027 9.76039 27.4641 9.67841C27.3978 9.53133 27.3618 9.37328 27.3582 9.21308C27.3582 8.54983 27.3582 7.88126 27.4028 7.21264C27.4785 6.25849 27.6275 5.31097 27.8486 4.37785C27.8746 4.25283 27.9237 4.13328 27.9935 4.02483V4.00879Z" fill="#3A3B7B"/>
<path fill-rule="evenodd" clip-rule="evenodd" d="M2.99446 15.5224C2.92866 15.6634 2.91062 15.8205 2.94277 15.9718C2.96417 16.1712 3.01115 16.3673 3.08266 16.5557C3.17193 16.7864 3.27183 17.0145 3.39501 17.2956C3.42333 17.3603 3.45294 17.4278 3.48391 17.4989C3.65002 17.8797 3.85845 18.3665 4.13646 19.071C4.21515 19.2711 4.28502 19.4728 4.35539 19.676C4.38381 19.7581 4.41234 19.8404 4.44154 19.9229C4.54621 20.2164 4.72631 20.48 4.96504 20.6889C5.06641 20.8037 5.20087 20.8874 5.35164 20.9293C5.50536 20.9719 5.66884 20.9692 5.82092 20.9215C5.973 20.8737 6.10657 20.7832 6.20429 20.6616C6.3001 20.5423 6.35707 20.3986 6.36815 20.2485C6.43031 19.9561 6.40909 19.6529 6.30665 19.371C6.14405 18.9029 5.95884 18.4341 5.74525 17.9756L5.74427 17.9736C5.39291 17.2563 5.03575 16.5439 4.6617 15.8312L4.6589 15.8262C4.54939 15.6406 4.40709 15.4746 4.23837 15.3358C4.12884 15.2118 3.97775 15.1283 3.81091 15.0994C3.6405 15.07 3.46476 15.0997 3.31504 15.1831C3.17341 15.2608 3.06114 15.3795 2.99446 15.5224Z" fill="#3A3B7B"/>
<path fill-rule="evenodd" clip-rule="evenodd" d="M8.36098 13.7559C7.81006 13.619 7.23469 13.599 6.67498 13.6975C6.24146 13.7385 5.81508 13.8344 5.51901 14.0245C5.36842 14.1213 5.24668 14.2455 5.17896 14.4034C5.11086 14.5622 5.10217 14.7438 5.15797 14.9461C5.25986 15.3167 5.39217 15.677 5.52401 16.0362L5.54537 16.0944L5.54588 16.0957C5.94286 17.1391 6.34362 18.179 6.74803 19.2153C6.79518 19.3787 6.86188 19.5362 6.94675 19.6848L6.94834 19.6875C7.06046 19.8722 7.20427 20.0373 7.37368 20.176C7.45842 20.2522 7.5632 20.305 7.67681 20.3285C7.79155 20.3523 7.91087 20.3454 8.02177 20.3085C8.13272 20.2717 8.23096 20.2063 8.30584 20.1195C8.37949 20.0341 8.42772 19.9313 8.44544 19.8218C8.51853 19.5245 8.49512 19.2127 8.37828 18.9285C8.34182 18.8328 8.31322 18.735 8.28308 18.6321C8.27303 18.5978 8.26284 18.5629 8.25209 18.5274C9.17779 18.1801 10.1628 17.7131 10.5091 16.6267C10.6447 16.2513 10.6561 15.8448 10.5415 15.4629C10.4268 15.0806 10.1915 14.7417 9.86794 14.493C9.42764 14.1448 8.91331 13.8932 8.36098 13.7559ZM6.83388 15.0884C6.85211 15.0834 6.87048 15.0787 6.88889 15.0744C7.49155 14.9834 8.10814 15.1046 8.62514 15.4155C8.85297 15.5675 8.94631 15.7365 8.96234 15.8991C8.97888 16.0665 8.91546 16.2479 8.78806 16.4223C8.54732 16.7517 8.108 17.0153 7.71117 17.0645C7.42187 16.425 7.12809 15.7597 6.83388 15.0884Z" fill="#3A3B7B"/>
<path d="M12.0339 12.5856C12.69 12.2948 13.5027 12.2445 14.1386 12.449C14.2988 12.4938 14.4377 12.5906 14.5317 12.723C14.6251 12.8545 14.6682 13.013 14.6538 13.1715C14.6529 13.2743 14.6266 13.3755 14.5771 13.4668C14.5267 13.5598 14.4537 13.6397 14.3644 13.6999C14.275 13.76 14.1719 13.7987 14.0637 13.8125C13.9554 13.8264 13.8454 13.815 13.7427 13.7793L13.7349 13.7766L13.7275 13.7729C13.675 13.7465 13.6192 13.7267 13.5615 13.7137L13.5578 13.713C13.1105 13.5989 12.6885 13.7879 12.5344 14.0201C12.4609 14.1308 12.4517 14.2425 12.513 14.3442C12.5785 14.453 12.7394 14.5752 13.0648 14.6623C13.1543 14.6859 13.246 14.7086 13.3391 14.7318C13.5964 14.7957 13.8638 14.8621 14.1224 14.9542L14.1234 14.9546C15.3164 15.3902 15.7606 16.2925 15.6085 17.1411C15.4581 17.9804 14.7278 18.7441 13.6297 18.9243C13.2301 19.0093 12.8142 18.9927 12.4233 18.8763C12.0314 18.7594 11.6781 18.5462 11.3985 18.2577L11.3913 18.2502C11.303 18.1415 11.2437 18.0139 11.2173 17.8784C11.1931 17.7561 11.2059 17.6298 11.254 17.5142C11.3019 17.3993 11.3828 17.2999 11.4873 17.2275C11.5976 17.1454 11.7307 17.0961 11.8699 17.0858C12.0086 17.0756 12.1475 17.1045 12.2693 17.169C12.391 17.2255 12.5042 17.2974 12.6058 17.383L12.6077 17.3846C12.7875 17.5424 13.005 17.5835 13.2135 17.5454C13.4251 17.5068 13.624 17.3866 13.752 17.2272C13.8791 17.0688 13.9301 16.8806 13.8696 16.6979C13.8086 16.5139 13.6254 16.3077 13.2227 16.1354C13.1175 16.0925 13.0084 16.0579 12.8948 16.0242C12.8642 16.0151 12.8331 16.0061 12.8016 15.9969C12.7177 15.9725 12.6313 15.9473 12.5466 15.9195C12.4883 15.9004 12.4304 15.8824 12.3731 15.8644C12.2165 15.8155 12.0638 15.7678 11.9169 15.7038C11.5971 15.5992 11.3208 15.3986 11.1291 15.1314C10.9367 14.8632 10.8398 14.5425 10.853 14.2171C10.854 13.4243 11.3743 12.878 12.0339 12.5856Z" fill="#3A3B7B"/>
<path d="M20.3518 12.501C20.2246 12.4414 20.0839 12.4131 19.9425 12.4187C19.801 12.4242 19.6633 12.4635 19.5416 12.533C19.4207 12.602 19.3195 12.6986 19.2469 12.8143C19.1804 12.9117 19.1344 13.0206 19.1115 13.135C19.0885 13.2493 19.0891 13.3667 19.113 13.4807C19.1367 13.6272 19.163 13.7697 19.1889 13.9103C19.2319 14.1428 19.2737 14.3701 19.3013 14.6019L19.3023 14.6078C19.365 14.9713 19.3979 15.3389 19.4008 15.7073L19.4011 15.7125C19.4226 16.1104 19.2813 16.5004 19.0077 16.8L19.0034 16.8053C18.9143 16.9149 18.7953 16.9984 18.6595 17.0468C18.5238 17.0951 18.3768 17.1062 18.2348 17.0788C18.0929 17.0515 17.9617 16.9868 17.8559 16.892C17.7501 16.7971 17.6738 16.6756 17.6357 16.5416C17.5543 16.2591 17.5073 15.9685 17.4953 15.6758L17.6342 13.5533C17.6363 13.5256 17.6386 13.4972 17.641 13.4685C17.6463 13.404 17.6517 13.3384 17.6539 13.2771C17.6572 13.187 17.6544 13.0943 17.6325 13.0066C17.6102 12.917 17.5676 12.8317 17.4921 12.7591C17.4173 12.6872 17.3163 12.6341 17.1893 12.598C16.9596 12.5342 16.7654 12.5362 16.6035 12.6022C16.4416 12.6681 16.3306 12.7905 16.2521 12.9319C16.1742 13.0721 16.1241 13.2381 16.0863 13.4043C16.0582 13.5277 16.0356 13.6572 16.0142 13.7805C16.0067 13.823 15.9995 13.8647 15.9922 13.9052L15.992 13.9064C15.8772 14.5824 15.843 15.2688 15.8901 15.9523C15.8989 16.3217 15.9792 16.6863 16.1268 17.0274C16.2935 17.4677 16.5952 17.8491 16.9923 18.1214C17.3903 18.3942 17.8652 18.5446 18.3541 18.5525C18.8431 18.5604 19.323 18.4256 19.7304 18.1659C20.1371 17.9065 20.4523 17.5348 20.6343 17.1C20.8888 16.546 21.0084 15.9435 20.9837 15.3385C20.9687 14.8968 20.9437 14.4517 20.9188 14.0089C20.9065 13.7916 20.8943 13.5749 20.8834 13.3594C20.8779 13.1434 20.8037 12.9341 20.6707 12.7598C20.5884 12.6495 20.4788 12.5606 20.3518 12.501Z" fill="#3A3B7B"/>
<path d="M24.8545 15.829C24.8416 15.8447 24.828 15.861 24.8138 15.878C24.7103 15.305 24.6144 14.7323 24.5183 14.1587C24.4839 13.9529 24.4493 13.7462 24.4144 13.5401L24.4105 13.5172L24.3978 13.4973C24.3738 13.4599 24.3714 13.4233 24.3714 13.3451V13.336L24.37 13.3271C24.344 13.1657 24.2679 13.0154 24.1517 12.896C24.0358 12.777 23.8852 12.6941 23.7197 12.6582C23.5544 12.619 23.3806 12.6276 23.2204 12.683C23.0605 12.7382 22.9212 12.8374 22.8198 12.9681C22.7355 13.0684 22.6664 13.1797 22.6146 13.2986C22.497 13.5548 22.3785 13.8116 22.2596 14.0692L22.2575 14.0736C21.9607 14.7165 21.6619 15.3637 21.3717 16.016L21.3708 16.0181C21.1927 16.441 21.0457 16.8867 20.8992 17.3309C20.8699 17.4196 20.8407 17.5083 20.8112 17.5967C20.7583 17.7369 20.7351 17.8858 20.7431 18.0347C20.7335 18.1679 20.7667 18.3009 20.8384 18.4155C20.9115 18.5325 21.021 18.6245 21.1514 18.6787C21.2897 18.7369 21.4442 18.7492 21.5906 18.7138C21.7367 18.6785 21.8665 18.5975 21.9594 18.4837C22.0781 18.3436 22.1803 18.1907 22.2635 18.0288C22.5093 17.5462 22.7442 17.0578 22.978 16.5715C23.0685 16.3834 23.1564 16.215 23.2565 16.0315C23.2633 16.0541 23.2703 16.0762 23.2776 16.0983C23.3824 16.5413 23.5594 16.9655 23.8019 17.3556C23.8478 17.4382 23.9117 17.5104 23.9893 17.5673C24.0678 17.6248 24.1584 17.6652 24.2548 17.6857C24.3513 17.7062 24.4512 17.7063 24.5476 17.6859C24.644 17.6657 24.7349 17.6252 24.8134 17.568L24.9689 17.4563L26.1758 16.4806L26.1044 16.9171C26.0065 17.5172 25.9092 18.1122 25.806 18.7074C25.7384 18.9711 25.7385 19.2467 25.8062 19.5104C25.8356 19.6588 25.9104 19.7954 26.021 19.9029C26.1326 20.0112 26.2756 20.0848 26.4313 20.1141C26.587 20.1435 26.7483 20.1272 26.8943 20.0674C27.0382 20.0086 27.1605 19.9101 27.246 19.7846C27.445 19.5477 27.5689 19.2608 27.6029 18.9582C27.6541 18.5308 27.712 18.0976 27.7699 17.6645C27.8366 17.1653 27.9033 16.6662 27.9596 16.1768L27.9598 16.1752C28.014 15.6394 28.0402 15.1014 28.0384 14.5631C28.0503 14.393 28.0062 14.2235 27.9121 14.0787C27.8178 13.9334 27.678 13.8204 27.5129 13.7557C27.3411 13.6808 27.1487 13.6607 26.9642 13.6986C26.7808 13.7362 26.6149 13.829 26.4904 13.9634C26.2678 14.161 26.0589 14.3724 25.8652 14.5963L25.8639 14.5978C25.6524 14.8508 25.4424 15.1086 25.2337 15.3649C25.1068 15.5206 24.9803 15.676 24.8545 15.829Z" fill="#3A3B7B"/>
</g>
<defs>
<clipPath id="clip0_301_1473">
<rect width="32.7153" height="20.186" fill="white" transform="translate(-0.00732422 0.773438)"/>
</clipPath>
</defs>
</svg>
