<svg width="39" height="34" viewBox="0 0 39 34" fill="none" xmlns="http://www.w3.org/2000/svg">
<g clip-path="url(#clip0_301_1031)">
<path d="M38.8875 13.9504C38.8915 13.9214 38.8915 13.8921 38.8875 13.863C38.8913 13.8394 38.8913 13.8153 38.8875 13.7916L38.6039 11.7502C38.563 11.506 38.4536 11.2778 38.288 11.091L38.2393 11.0354L38.1503 10.948L33.2405 6.80182L33.3782 6.93686C33.2655 6.80469 33.1241 6.69897 32.9642 6.62749C32.8044 6.55601 32.6302 6.52058 32.4546 6.52383H30.9638C30.7214 6.51912 30.4845 6.59468 30.2913 6.73829C30.0885 6.59554 29.8443 6.52037 29.5946 6.52383H28.1038C27.9083 6.52072 27.7154 6.56829 27.5447 6.66174C27.3739 6.75519 27.2314 6.8912 27.1316 7.056C26.9776 7.29138 26.9197 7.57497 26.9695 7.85029L27.1559 9.13703C27.0324 9.06843 26.8927 9.03283 26.7508 9.03379H19.5319C19.2729 9.03538 19.0199 9.1098 18.8027 9.24824C18.5927 9.37709 18.4242 9.56159 18.3166 9.78041L17.7576 9.31178C17.5375 9.1122 17.2471 9.00402 16.9474 9.00996H5.62085C5.36093 9.0146 5.10678 9.08578 4.88359 9.21647C4.57825 9.39168 4.35447 9.67657 4.25973 10.0108L0.662456 21.806C0.595242 22.0003 0.58863 22.2099 0.643467 22.408C0.698304 22.606 0.812106 22.7836 0.970334 22.918C1.01156 22.9522 1.05485 22.9841 1.09997 23.0133C1.09997 23.0133 1.02704 22.9656 0.986529 22.9259L5.89634 27.08C6.10403 27.2675 6.37558 27.3723 6.65787 27.3739H18.0736C18.3343 27.3673 18.5886 27.2933 18.8109 27.1595C18.9366 27.0921 19.049 27.0034 19.143 26.8973L19.1835 26.8417L19.2484 26.7623L19.297 26.6749L19.8317 27.1277C20.0364 27.3077 20.3021 27.4067 20.5771 27.4057H32.017C32.2775 27.3972 32.5313 27.3234 32.7543 27.1912C32.8772 27.1198 32.989 27.0315 33.0865 26.9291L33.127 26.8735L33.1918 26.7941C33.2263 26.7438 33.2561 26.6907 33.2809 26.6352C33.3074 26.5871 33.3291 26.5365 33.3457 26.4843L36.627 15.7138V15.6184C36.6311 15.5815 36.6311 15.5442 36.627 15.5072V15.4358C36.631 15.4121 36.631 15.388 36.627 15.3643C36.6307 15.314 36.6307 15.2636 36.627 15.2133H37.6803C37.7719 15.2216 37.8641 15.2216 37.9557 15.2133H38.0287C38.088 15.196 38.1451 15.172 38.1989 15.1419H38.2799L38.4257 15.0307L38.4905 14.983L38.6039 14.84V14.7924L38.685 14.6573C38.6804 14.6311 38.6804 14.6042 38.685 14.5779C38.6806 14.5651 38.6806 14.5511 38.685 14.5382C38.7022 14.4917 38.7157 14.4438 38.7255 14.3952C38.7217 14.3796 38.7217 14.3632 38.7255 14.3476C38.7215 14.3239 38.7215 14.2997 38.7255 14.2761C38.7255 14.2761 38.8875 13.9663 38.8875 13.9504Z" fill="black"/>
<path d="M17.2796 9.91548C17.3226 9.95361 17.3526 10.0037 17.3657 10.0591C17.3788 10.1145 17.3741 10.1725 17.3525 10.2252L13.7634 22.0125C13.7182 22.1412 13.6257 22.2488 13.5041 22.3144C13.4052 22.3792 13.2906 22.4176 13.1719 22.4256H1.76436C1.66694 22.421 1.57464 22.3814 1.50509 22.3144C1.46372 22.2768 1.43468 22.2281 1.42169 22.1743C1.4087 22.1206 1.41236 22.0642 1.43218 22.0125L5.02945 10.2252C5.0709 10.0949 5.16045 9.98447 5.28061 9.91548C5.38119 9.85524 5.49518 9.81981 5.61279 9.81222H17.0203C17.117 9.81313 17.2097 9.85005 17.2796 9.91548ZM11.3246 19.6376L13.4717 12.6002H7.46005L5.32111 19.6376H11.3246ZM28.1686 10.0346C28.2075 10.079 28.2562 10.1141 28.3109 10.1375C28.3656 10.1609 28.425 10.1719 28.4846 10.1696H29.9673C30.0237 10.1702 30.0794 10.1566 30.129 10.1302C30.1786 10.1038 30.2205 10.0654 30.2508 10.0187C30.2772 9.98225 30.2958 9.94095 30.3055 9.89728C30.3152 9.85363 30.3159 9.80849 30.3075 9.76456L30.0159 7.66764C29.9881 7.57059 29.9382 7.48097 29.8701 7.40552C29.8311 7.36118 29.7825 7.32601 29.7278 7.30263C29.6731 7.27926 29.6137 7.26827 29.5541 7.27049H28.0714C28.015 7.26995 27.9593 7.28353 27.9097 7.30993C27.8601 7.33634 27.8181 7.3747 27.7879 7.42141C27.7311 7.53261 27.7068 7.60409 27.7311 7.66764L28.0309 9.76456C28.0463 9.86667 28.0946 9.96128 28.1686 10.0346ZM32.8759 7.65175C32.8481 7.5547 32.7982 7.46508 32.73 7.38963C32.6928 7.34545 32.6455 7.3103 32.5922 7.28688C32.5388 7.26346 32.4806 7.25242 32.4222 7.25461H30.9314C30.8759 7.25305 30.8209 7.26626 30.7725 7.29283C30.724 7.3194 30.6837 7.35834 30.656 7.40552C30.602 7.47599 30.5787 7.5645 30.5911 7.65175L30.8909 9.74867C30.9097 9.8497 30.9574 9.94338 31.0286 10.0187C31.0682 10.0622 31.117 10.0968 31.1716 10.1201C31.2261 10.1434 31.2851 10.1549 31.3446 10.1538H32.8354C32.8908 10.1545 32.9453 10.1409 32.9937 10.1144C33.042 10.0879 33.0825 10.0495 33.1109 10.0028C33.139 9.96731 33.1587 9.92603 33.1685 9.88205C33.1784 9.83807 33.178 9.7925 33.1675 9.74867L32.8759 7.65175ZM26.8642 10.8289L26.7184 9.79633H19.5319C19.4191 9.80243 19.31 9.83809 19.216 9.89959C19.1563 9.93149 19.1043 9.97571 19.0638 10.0292C19.0233 10.0827 18.995 10.1441 18.981 10.2094L18.3815 12.1792C18.3575 12.2284 18.3494 12.2836 18.358 12.3375C18.3667 12.3914 18.3918 12.4414 18.4301 12.481C18.4984 12.544 18.5876 12.5807 18.6813 12.5843H27.4152L25.2681 19.6217H16.5585C16.4462 19.6242 16.3368 19.6572 16.2426 19.717C16.128 19.7884 16.0443 19.8987 16.0076 20.0268L15.4 21.9966C15.3801 22.0472 15.3749 22.1021 15.3849 22.1553C15.395 22.2086 15.4197 22.2581 15.4566 22.2984C15.5228 22.3656 15.6127 22.4054 15.7078 22.4096H27.1478C27.2661 22.3997 27.3801 22.3615 27.4799 22.2984C27.5996 22.2326 27.6893 22.1247 27.7311 21.9966L31.0205 11.2261H27.3179C27.2592 11.2272 27.2008 11.2165 27.1465 11.1946C27.0922 11.1728 27.043 11.1402 27.002 11.099C26.935 11.0269 26.8876 10.9395 26.8642 10.8448V10.8289Z" fill="white"/>
</g>
<defs>
<clipPath id="clip0_301_1031">
<rect width="38.2838" height="20.8821" fill="white" transform="translate(0.606689 6.52362)"/>
</clipPath>
</defs>
</svg>
