<svg width="39" height="34" viewBox="0 0 39 34" fill="none" xmlns="http://www.w3.org/2000/svg">
<g clip-path="url(#clip0_301_1003)">
<path d="M38.5804 13.9504C38.5844 13.9214 38.5844 13.8921 38.5804 13.863C38.5842 13.8394 38.5842 13.8153 38.5804 13.7916L38.2968 11.7502C38.2559 11.506 38.1465 11.2778 37.9808 11.091L37.9322 11.0354L37.8431 10.948L32.9333 6.80182L33.071 6.93686C32.9584 6.80469 32.8169 6.69897 32.6571 6.62749C32.4973 6.55601 32.3231 6.52058 32.1474 6.52383H30.6567C30.4143 6.51912 30.1774 6.59468 29.9842 6.73829C29.7813 6.59554 29.5371 6.52037 29.2874 6.52383H27.7966C27.6011 6.52072 27.4083 6.56829 27.2375 6.66174C27.0668 6.75519 26.9243 6.8912 26.8245 7.056C26.6705 7.29138 26.6126 7.57497 26.6624 7.85029L26.8488 9.13703C26.7253 9.06843 26.5856 9.03283 26.4436 9.03379H19.2248C18.9658 9.03538 18.7127 9.1098 18.4956 9.24824C18.2856 9.37709 18.1171 9.56159 18.0095 9.78041L17.4504 9.31178C17.2304 9.1122 16.94 9.00402 16.6403 9.00996H5.31372C5.0538 9.0146 4.79965 9.08578 4.57646 9.21647C4.27112 9.39168 4.04734 9.67657 3.9526 10.0108L0.355327 21.806C0.288114 22.0003 0.281502 22.2099 0.336338 22.408C0.391175 22.606 0.504977 22.7836 0.663205 22.918C0.704435 22.9522 0.747726 22.9841 0.79284 23.0133C0.79284 23.0133 0.719911 22.9656 0.6794 22.9259L5.58921 27.08C5.7969 27.2675 6.06845 27.3723 6.35074 27.3739H17.7664C18.0271 27.3673 18.2815 27.2933 18.5037 27.1595C18.6294 27.0921 18.7419 27.0034 18.8359 26.8973L18.8764 26.8417L18.9412 26.7623L18.9898 26.6749L19.5246 27.1277C19.7293 27.3077 19.9949 27.4067 20.2699 27.4057H31.7099C31.9703 27.3972 32.2242 27.3234 32.4472 27.1912C32.5701 27.1198 32.6819 27.0315 32.7794 26.9291L32.8199 26.8735L32.8847 26.7941C32.9191 26.7438 32.949 26.6907 32.9738 26.6352C33.0003 26.5871 33.022 26.5365 33.0386 26.4843L36.3199 15.7138V15.6184C36.3239 15.5815 36.3239 15.5442 36.3199 15.5072V15.4358C36.3238 15.4121 36.3238 15.388 36.3199 15.3643C36.3236 15.314 36.3236 15.2636 36.3199 15.2133H37.3732C37.4648 15.2216 37.557 15.2216 37.6486 15.2133H37.7216C37.7809 15.196 37.838 15.172 37.8917 15.1419H37.9728L38.1186 15.0307L38.1834 14.983L38.2968 14.84V14.7924L38.3778 14.6573C38.3733 14.6311 38.3733 14.6042 38.3778 14.5779C38.3735 14.5651 38.3735 14.5511 38.3778 14.5382C38.3951 14.4917 38.4086 14.4438 38.4183 14.3952C38.4146 14.3796 38.4146 14.3632 38.4183 14.3476C38.4144 14.3239 38.4144 14.2997 38.4183 14.2761C38.4183 14.2761 38.5804 13.9663 38.5804 13.9504Z" fill="black"/>
<path d="M16.9725 9.91548C17.0155 9.95361 17.0455 10.0037 17.0585 10.0591C17.0716 10.1145 17.067 10.1725 17.0454 10.2252L13.4562 22.0125C13.4111 22.1412 13.3186 22.2488 13.197 22.3144C13.098 22.3792 12.9835 22.4176 12.8648 22.4256H1.45723C1.35981 22.421 1.26751 22.3814 1.19796 22.3144C1.15659 22.2768 1.12755 22.2281 1.11456 22.1743C1.10157 22.1206 1.10523 22.0642 1.12505 22.0125L4.72232 10.2252C4.76377 10.0949 4.85333 9.98447 4.97348 9.91548C5.07406 9.85524 5.18805 9.81981 5.30566 9.81222H16.7132C16.8099 9.81313 16.9025 9.85005 16.9725 9.91548ZM11.0175 19.6376L13.1645 12.6002H7.15292L5.01398 19.6376H11.0175ZM27.8615 10.0346C27.9004 10.079 27.9491 10.1141 28.0038 10.1375C28.0585 10.1609 28.1178 10.1719 28.1775 10.1696H29.6601C29.7166 10.1702 29.7722 10.1566 29.8219 10.1302C29.8715 10.1038 29.9134 10.0654 29.9437 10.0187C29.97 9.98225 29.9886 9.94095 29.9984 9.89728C30.0081 9.85363 30.0088 9.80849 30.0004 9.76456L29.7087 7.66764C29.681 7.57059 29.6311 7.48097 29.5629 7.40552C29.524 7.36118 29.4754 7.32601 29.4207 7.30263C29.3659 7.27926 29.3065 7.26827 29.2469 7.27049H27.7643C27.7078 7.26995 27.6522 7.28353 27.6025 7.30993C27.5529 7.33634 27.511 7.3747 27.4807 7.42141C27.424 7.53261 27.3997 7.60409 27.424 7.66764L27.7238 9.76456C27.7391 9.86667 27.7874 9.96128 27.8615 10.0346ZM32.5688 7.65175C32.5409 7.5547 32.4911 7.46508 32.4229 7.38963C32.3856 7.34545 32.3384 7.3103 32.285 7.28688C32.2316 7.26346 32.1735 7.25242 32.115 7.25461H30.6243C30.5687 7.25305 30.5138 7.26626 30.4653 7.29283C30.4168 7.3194 30.3766 7.35834 30.3488 7.40552C30.2949 7.47599 30.2716 7.5645 30.284 7.65175L30.5837 9.74867C30.6026 9.8497 30.6503 9.94338 30.7215 10.0187C30.7611 10.0622 30.8099 10.0968 30.8644 10.1201C30.919 10.1434 30.978 10.1549 31.0375 10.1538H32.5282C32.5836 10.1545 32.6382 10.1409 32.6865 10.1144C32.7349 10.0879 32.7753 10.0495 32.8037 10.0028C32.8319 9.96731 32.8516 9.92603 32.8614 9.88205C32.8713 9.83807 32.8709 9.7925 32.8604 9.74867L32.5688 7.65175ZM26.5571 10.8289L26.4112 9.79633H19.2248C19.112 9.80243 19.0028 9.83809 18.9088 9.89959C18.8492 9.93149 18.7972 9.97571 18.7566 10.0292C18.7161 10.0827 18.6879 10.1441 18.6739 10.2094L18.0743 12.1792C18.0504 12.2284 18.0422 12.2836 18.0509 12.3375C18.0596 12.3914 18.0847 12.4414 18.1229 12.481C18.1913 12.544 18.2804 12.5807 18.3741 12.5843H27.108L24.961 19.6217H16.2514C16.1391 19.6242 16.0297 19.6572 15.9354 19.717C15.8209 19.7884 15.7372 19.8987 15.7005 20.0268L15.0928 21.9966C15.073 22.0472 15.0678 22.1021 15.0778 22.1553C15.0878 22.2086 15.1126 22.2581 15.1495 22.2984C15.2157 22.3656 15.3056 22.4054 15.4007 22.4096H26.8406C26.959 22.3997 27.073 22.3615 27.1728 22.2984C27.2924 22.2326 27.3822 22.1247 27.424 21.9966L30.7134 11.2261H27.0108C26.952 11.2272 26.8937 11.2165 26.8394 11.1946C26.785 11.1728 26.7358 11.1402 26.6948 11.099C26.6278 11.0269 26.5805 10.9395 26.5571 10.8448V10.8289Z" fill="white"/>
</g>
<defs>
<clipPath id="clip0_301_1003">
<rect width="38.2838" height="20.8821" fill="white" transform="translate(0.299561 6.52362)"/>
</clipPath>
</defs>
</svg>
