<svg width="29" height="28" viewBox="0 0 29 28" fill="none" xmlns="http://www.w3.org/2000/svg">
<g clip-path="url(#clip0_301_1463)">
<path fill-rule="evenodd" clip-rule="evenodd" d="M7.34863 0.0546875C11.1929 0.0546875 14.3093 3.17109 14.3093 7.01538V0.0546875H21.27C25.1143 0.0546875 28.2307 3.17109 28.2307 7.01538C28.2307 10.8596 25.1143 13.9761 21.27 13.9761C25.1143 13.9761 28.2307 17.0925 28.2307 20.9368C28.2307 22.8456 27.4623 24.575 26.218 25.8325L26.192 25.8587L26.1689 25.8817C24.9111 27.1278 23.1805 27.8975 21.27 27.8975C19.3726 27.8975 17.6525 27.1383 16.3968 25.9071C16.3806 25.891 16.3643 25.8749 16.348 25.8587C16.3328 25.8435 16.3176 25.8282 16.3025 25.8128C15.0697 24.557 14.3093 22.8356 14.3093 20.9368C14.3093 24.781 11.1929 27.8975 7.34863 27.8975C3.50435 27.8975 0.387939 24.781 0.387939 20.9368V13.9761H7.34863C3.50435 13.9761 0.387939 10.8596 0.387939 7.01538C0.387939 3.17109 3.50435 0.0546875 7.34863 0.0546875ZM12.9172 7.01538C12.9172 10.0908 10.4241 12.5839 7.34863 12.5839V1.44683C10.4241 1.44683 12.9172 3.93995 12.9172 7.01538ZM26.8386 20.9368C26.8386 17.8613 24.3455 15.3682 21.27 15.3682C18.1946 15.3682 15.7015 17.8613 15.7015 20.9368H26.8386ZM1.78008 15.3682V20.9368C1.78008 24.0122 4.2732 26.5053 7.34863 26.5053C10.4241 26.5053 12.9172 24.0122 12.9172 20.9368V15.3682H1.78008ZM15.7015 12.5839V1.44683H21.27C24.3455 1.44683 26.8386 3.93995 26.8386 7.01538C26.8386 10.0908 24.3455 12.5839 21.27 12.5839H15.7015Z" fill="#5417D7"/>
</g>
<defs>
<clipPath id="clip0_301_1463">
<rect width="27.8428" height="27.8428" fill="white" transform="translate(0.387939 0.0546875)"/>
</clipPath>
</defs>
</svg>
