<svg width="38" height="15" viewBox="0 0 38 15" fill="none" xmlns="http://www.w3.org/2000/svg">
<g clip-path="url(#clip0_301_1493)">
<path d="M9.48474 0.557861C8.07121 0.557861 6.71559 1.11938 5.71609 2.11889L2.4541 5.38088C1.45459 6.38039 0.893066 7.73601 0.893066 9.14954C0.893066 12.0931 3.27926 14.4793 6.22278 14.4793C7.63631 14.4793 8.99193 13.9177 9.99144 12.9182L12.2478 10.6619C12.2478 10.6618 12.2478 10.6619 12.2478 10.6619L18.822 4.08768C19.2993 3.61032 19.9468 3.34214 20.6219 3.34214C21.7521 3.34214 22.7103 4.07877 23.0425 5.09812L25.1173 3.02332C24.1708 1.54087 22.5111 0.557861 20.6219 0.557861C19.2083 0.557861 17.8527 1.11938 16.8532 2.11889L8.02267 10.9494C7.54531 11.4268 6.89787 11.695 6.22278 11.695C4.81697 11.695 3.67734 10.5554 3.67734 9.14954C3.67734 8.47445 3.94552 7.82701 4.42288 7.34964L7.68485 4.08768C8.16221 3.61032 8.80965 3.34214 9.48474 3.34214C10.615 3.34214 11.5732 4.0788 11.9054 5.09819L13.9802 3.02337C13.0337 1.5409 11.3741 0.557861 9.48474 0.557861Z" fill="#394149"/>
<path d="M19.1599 10.9494C18.6825 11.4268 18.0351 11.695 17.36 11.695C16.2299 11.695 15.2718 10.9585 14.9395 9.93935L12.8647 12.0141C13.8113 13.4964 15.4709 14.4793 17.36 14.4793C18.7735 14.4793 20.1292 13.9177 21.1287 12.9182L29.9592 4.08768C30.4366 3.61032 31.084 3.34214 31.7591 3.34214C33.1649 3.34214 34.3045 4.48176 34.3045 5.88757C34.3045 6.56267 34.0363 7.2101 33.559 7.68747L30.297 10.9494C29.8197 11.4268 29.1722 11.695 28.4971 11.695C27.3669 11.695 26.4088 10.9584 26.0765 9.93911L24.0018 12.0139C24.9483 13.4963 26.6079 14.4793 28.4971 14.4793C29.9107 14.4793 31.2663 13.9177 32.2658 12.9182L35.5277 9.65623C36.5273 8.65672 37.0888 7.3011 37.0888 5.88757C37.0888 2.94405 34.7026 0.557861 31.7591 0.557861C30.3456 0.557861 28.9899 1.11938 27.9904 2.11889L19.1599 10.9494Z" fill="#394149"/>
</g>
<defs>
<clipPath id="clip0_301_1493">
<rect width="36.1956" height="13.9214" fill="white" transform="translate(0.893066 0.557861)"/>
</clipPath>
</defs>
</svg>
